<?xml version="1.0" encoding="UTF-8"?>
<svg id="Capa_2" data-name="Capa 2" xmlns="http://www.w3.org/2000/svg" viewBox="0 0 470.81 153.49">
  <defs>
    <style>
      .cls-1 {
        fill: #727272;
      }

      .cls-2 {
        fill: none;
      }
    </style>
  </defs>
  <g id="Capa_1-2" data-name="Capa 1">
    <path class="cls-1" d="M33.07,50.41c0-10.33,.01-20.66,0-30.99,0-3.5,.36-6.91,4.35-8.06,4.01-1.16,7.66-.21,10.3,3.2,4.91,6.35,4.96,14.06,5.13,21.46,.37,15.49,.12,30.99,.12,46.48,0,1.33-.04,2.67,.02,4,.32,7.12-.46,15.05,7.61,18.57,7.79,3.39,19.91-.2,25.7-6.64,9.32-10.37,11.93-31.5,5.65-43.89-2.1-4.15-4.52-5.68-9.07-3.54-4.26,2-8.97,2.59-13.66,2.29-3.57-.23-6.74-1.81-6.87-5.88-.12-3.7,2.49-5.47,5.92-6.34,2.96-.75,5.93-.78,8.93-.8,2.1-.01,4.43-.24,4.53-2.83,.23-6.1,1.48-12.3-1.1-18.24-4.47-10.28-13.79-13.19-23.4-13.23-15.27-.06-29.72,3.45-40.76,15.49-14.95,16.31-14.77,43.16,.57,57.48,3.11,2.9,6.75,4.84,10.66,6.34,2.02,.78,3.95,1.78,2.76,4.3-1.12,2.35-3.02,1.1-4.75,.47C8.92,83.9-1.88,64.47,.27,46.3,3.73,17.07,27.37,1.34,52.48,1.21c11.42-.06,22.66,.23,33.09,5.7,13.93,7.31,18,19.34,11.11,33.43-1.08,2.21-1.28,3.58,1.25,4.73,25.9,11.87,20.21,45.4-.16,57.76-14.28,8.66-29.65,11.39-45.93,6.25-10.32-3.26-18.55-15.3-18.74-27.66-.16-10.33-.03-20.66-.03-30.99h.02Z"/>
    <g>
      <path class="cls-2" d="M298.56,70.81c2.11,.96,4.25-.34,5.98-1.58,3.93-2.82,6.49-6.45,6.49-11.59,0-3.93-1.62-6.42-5.56-6.86-3.94-.44-6.25,1.9-7.18,5.42-.76,2.86-.98,5.85-1.4,8.47,.4,2.36-.8,5.02,1.67,6.15Z"/>
      <path class="cls-2" d="M143.39,70.68c2.48,1.29,4.88-.38,6.79-1.89,3.48-2.75,5.81-6.2,5.92-10.95,.1-3.92-1.27-6.46-5.29-7.04-3.98-.57-6.35,1.65-7.4,5.14-.85,2.83-1.11,5.84-1.52,8.15,.46,2.7-.79,5.41,1.5,6.6Z"/>
      <path class="cls-2" d="M354.88,7.41c-.04-1.84,.14-4.71-2.47-4.66-2.13,.05-2.13,2.71-2.15,4.48-.09,6.97-.04,13.95-.04,20.92,2.78-6.68,4.83-13.51,4.66-20.75Z"/>
      <path class="cls-2" d="M389.64,27.1c1.08-4.6,2.36-9.16,3.18-13.8,.51-2.92,.56-5.99-.25-8.91-.19-.68-.93-1.43-1.59-1.71-.98-.41-1.54,.46-1.7,1.3-1.5,7.63-1.46,15.29-.86,22.95,.41,.06,.82,.11,1.23,.17Z"/>
      <path class="cls-1" d="M469.06,68.42c-2.12-.55-2.81,1.43-3.29,2.99-.69,2.22-1.08,4.53-1.64,6.79-1.87,7.6-5.06,14.51-10.99,21.33,0-11.77-.06-22.42,.03-33.06,.03-3.89-.56-7.62-1.75-11.29-1.73-5.32-7.42-7.28-11.93-3.98-2.36,1.72-3.87,4.09-4.52,6.98-1.16,5.22-1.65,10.52-1.72,15.86-.07,5.16,.12,10.34-.15,15.49-.2,3.85-4.3,8.04-7.33,7.57-4.36-.69-4.52-4.31-4.55-7.69-.07-8.66-.05-17.33-.05-25.99,0-2.68-.23-5.3-1.11-7.87-1.14-3.33-3.25-5.49-6.78-5.76-3.41-.26-6.19,1.19-8.04,4.09-2.5,3.93-3.35,8.35-3.17,12.92,.34,8.46-2.62,15.98-6.31,23.33-1.15,2.29-2.77,4.18-4.77,5.7-3.4,2.6-6.43,1.6-6.72-2.54-1.32-19.05-3.47-38.09,3.97-56.68,3.31-8.28,5.61-17.14,4.9-26.33-.69-8.94-6.88-12.51-15.13-8.85-4.15,1.84-7.07,5.02-9.02,9-2.14,4.35-3.14,9.04-4.01,13.84-2.83,15.56-1.51,31.23-1.73,46.86-.12,8.16-3.09,15.25-7.59,21.8-1.6,2.34-3.77,4.87-6.92,3.93-3.21-.96-3.37-4.29-3.41-7.12-.13-8.33,.02-16.67-.2-24.99-.21-8.05,.79-15.69,3.51-23.45,3.34-9.5,6.91-19.16,6.6-29.57-.14-4.57-1.14-8.98-5.77-10.76-4.62-1.78-9.16-.68-13.08,2.57-4.58,3.81-6.99,8.83-8.22,14.49-3.61,16.59-3.12,33.42-2.8,50.22,.18,9.23-2.42,17.52-8.43,24.34-4.03,4.58-9.6,8.22-15.93,5.98-5.57-1.98-7.64-7.29-8.26-13.23-.35-3.36,1.02-4.58,3.76-5.27,5.11-1.29,9.03-4.35,11.82-8.66,3.14-4.85,4.11-10.25,1.87-15.74-1.9-4.65-6.2-5.91-10.67-6.03-3.63-.1-7.3,.37-10.77,1.69-10.14,3.84-14.77,11.78-16.58,21.95-1.26,7.1-3.38,13.9-7.82,19.75-1.74,2.29-3.73,4.82-6.94,3.81-3.13-.98-2.62-4.31-3-6.84-.27-1.8-.14-3.66-.15-5.49-.02-6,.13-12-.06-17.99-.18-5.53-1.77-10.69-6.81-13.73-6.71-4.05-18.39-5.46-25,1.76-1.44,1.57-2.44,2.03-4.46,.32-8.05-6.81-17.57-7.3-26.19-1.5-2.03,1.36-3.31,1.72-4.96-.45-2.51-3.29-5.88-4.09-9.81-2.69-4.21,1.5-6.72,4.26-6.7,8.87,.01,2.82,.32,5.65,.37,8.47,.18,10.26-2.76,19.48-10.18,26.7-3.77,3.67-8.89,6.14-14.16,4.41-5.34-1.75-7.59-6.65-8.23-12.14-.04-.33-.07-.67-.17-.99-.95-3.13,.47-4.52,3.42-5.36,8.3-2.36,13.13-8.04,15.13-16.35,1.49-6.19-2.13-12.61-8.37-13.63-21.61-3.53-34.18,15.46-30.11,32.58,2.6,10.93,9.71,18.08,20.59,20.1,11.34,2.1,22.46,1.35,29.94-9.61,.44-.64,.78-1.5,2.24-1.42,.13,1.52,.25,3.11,.4,4.7,.3,3.16,2.11,5.53,4.96,6.29,7.15,1.92,14.87,.4,14.92-9.77,.05-9,.07-18,0-26.99-.03-3.22,.95-5.81,3.41-7.94,1.73-1.5,3.63-2.69,5.86-2.02,2.08,.62,2.05,2.91,2.34,4.64,.35,2.12,.4,4.31,.41,6.47,.05,9.33-.06,18.66,.08,27.99,.08,5.22,2.86,7.87,8.07,8.22,7.92,.52,11.64-2.59,11.76-10.58,.13-8.48,.66-17-.44-25.46-.34-2.64,.37-4.93,1.77-7.1,1.85-2.86,4.46-5.06,7.84-4.15,3.09,.83,2.78,4.25,2.84,6.83,.17,7.83,.03,15.66,.21,23.49,.17,7.56,4.63,14.41,10.34,16.34,10.01,3.39,20.03-.5,25.22-9.8,.96-1.73,1.83-3.51,3.09-5.95,5.79,10.93,14.41,15.87,26.35,16.59,12.62,.76,20.7-5.19,26.96-16.15,3.49,9.7,8.01,16.28,18.75,16.1,10.52-.18,14.1-8.42,19.13-15.34,12.33,21.26,21.55,21.26,38.24,.2,.67,1,1.41,1.87,1.89,2.87,4.74,9.88,13.69,15.55,25.92,10.16,1.61-.71,3-.22,2.69,1.51-1.29,7.2,1.54,15-3.63,21.68-2.84,3.67-4.68,8.02-5.81,12.63-1.78,7.26-.1,13.35,4.44,15.45,4.47,2.06,10.68-.6,14.94-6.4,.1-.13,.21-.26,.29-.41,3.65-6.4,6.58-12.99,7.33-20.51,.92-9.15,.82-18.7,8.43-25.81,1.76-1.64,2.79-4.14,3.93-6.35,3.39-6.54,5.68-13.47,6.93-20.74,.3-1.73,.47-3.64-1.57-4.17ZM384.39,7.89c.16-.84,.72-1.71,1.7-1.3,.67,.28,1.41,1.03,1.59,1.71,.81,2.93,.76,5.99,.25,8.91-.81,4.64-2.09,9.2-3.18,13.8-.41-.06-.82-.11-1.23-.17-.6-7.66-.63-15.32,.86-22.95Zm-39.02,3.25c.02-1.77,.02-4.43,2.15-4.48,2.61-.06,2.43,2.81,2.47,4.66,.17,7.23-1.88,14.06-4.66,20.75,0-6.97-.05-13.95,.04-20.92Zm-208.36,56.85c.41-2.31,.67-5.32,1.52-8.15,1.05-3.49,3.42-5.71,7.4-5.14,4.02,.58,5.39,3.12,5.29,7.04-.12,4.75-2.44,8.2-5.92,10.95-1.92,1.51-4.31,3.19-6.79,1.89-2.29-1.19-1.04-3.9-1.5-6.6Zm154.99,.58c.41-2.62,.64-5.61,1.4-8.47,.93-3.52,3.23-5.86,7.18-5.42,3.95,.44,5.57,2.94,5.56,6.86,0,5.14-2.56,8.78-6.49,11.59-1.72,1.24-3.86,2.54-5.98,1.58-2.47-1.12-1.27-3.78-1.67-6.15Zm140.93,79.88c-1.28,1.99-2.14,2.08-2.48,2.06-2.18-.09-4.17-5.51-4.21-9.99-.06-6.29,3.7-13.14,6.11-12.8,3.18,.45,5.18,13.58,.58,20.72Z"/>
    </g>
  </g>
</svg>